<svg width="637" height="150" viewBox="0 0 637 150" fill="none" xmlns="http://www.w3.org/2000/svg">
<path d="M16.9963 0.287875C41.1656 0.025475 68.0572 -1.50451 90.7969 6.49455C162.215 31.6164 143.982 113.758 85.37 142.382C78.3255 145.601 70.8741 147.842 63.223 149.041C64.0792 148.433 69.945 146.599 71.5801 145.949C78.2948 143.256 84.592 139.62 90.2815 135.15C99.6163 127.673 106.153 118.115 107.434 105.898C108.242 98.3217 106.753 90.6773 103.161 83.9586C95.7116 70.225 78.8935 62.1512 64.716 57.4462C50.0077 52.5653 35.8454 49.5126 25.4897 36.6295C16.5887 25.5567 15.5237 13.8145 16.9963 0.287875Z" fill="#C4A265"/>
<path d="M26.8395 87.1862C43.8208 84.8718 59.4616 96.7693 61.77 113.757C64.0782 130.745 52.1796 146.388 35.1966 148.691C18.2215 150.993 2.59376 139.097 0.286335 122.117C-2.02075 105.137 9.86614 89.5 26.8395 87.1862Z" fill="#C4A265"/>
<path fill-rule="evenodd" clip-rule="evenodd" d="M284.095 57.9404C332.47 53.5453 333.66 123.802 291.911 129.687C282.936 130.324 274.925 129.172 267.389 123.812C251.681 112.64 249.837 86.4285 260.739 71.4121C266.652 63.2688 274.446 59.5479 284.095 57.9404ZM298.702 73.0078C296.279 66.296 292.481 61.6771 284.938 62.4033C274.266 66.1076 273.81 82.8764 273.633 92.4434C273.454 102.101 276.342 127.2 290.327 125.314C305.449 119.787 303.153 85.3357 298.702 73.0078Z" fill="#C4A265"/>
<path fill-rule="evenodd" clip-rule="evenodd" d="M600.489 57.9453C609.904 56.5915 623.411 59.7344 625.783 70.0488C629.14 84.6327 625.949 102.003 627.467 116.961C628.045 122.626 632.837 120.775 636.248 119.816C635.78 120.862 635.03 122.371 634.372 123.3C631.849 126.832 628.007 129.196 623.718 129.856C614.737 131.178 610.152 126.547 608.964 118.08C606.375 121.418 602.685 125.04 598.995 127.023C589.363 132.202 578.075 131.064 572.599 121.021C572.392 120.543 572.213 120.054 572.059 119.557C564.892 96.9865 593.367 91.2351 608.765 86.5264C608.785 83.8281 608.767 80.9448 608.795 78.2334C608.871 70.6176 607.955 60.4902 597.58 62.2578C595.68 62.5812 594.12 64.3171 593.404 66.0479C591.136 71.5461 591.442 80.654 584.327 82.4824C582.096 83.0599 579.156 82.7561 577.235 81.4893C575.728 80.5062 574.685 78.9523 574.348 77.1846C574.003 75.4376 574.272 74.2976 574.926 72.708C578.799 63.331 591.408 59.4133 600.489 57.9453ZM608.442 90.9414C601.637 93.6624 594.005 97.107 590.817 104.221C588.958 108.364 589.654 113.558 592.831 116.881C598.662 120.981 604.077 118.068 608.766 113.649C608.776 110.935 609.076 91.8936 608.442 90.9414Z" fill="#C4A265"/>
<path d="M187.109 28.6834C188.478 28.5853 189.787 28.5491 191.159 28.5557C214.15 28.6607 237.178 28.3367 260.165 28.5943C260.84 34.6401 261.093 48.8197 260.787 54.9282C256.52 49.9013 253.943 43.654 249.055 38.7696C243.552 33.2703 237.146 33.6346 229.9 33.4803C225.494 33.3863 221.199 33.4449 216.864 33.4414C216.53 46.3772 216.835 60.6731 216.862 73.676C231.223 73.6709 236.401 74.7005 243.229 61.3701C243.581 60.6831 244.12 60.4345 244.831 60.3419C246.171 62.0533 245.601 80.0249 245.588 83.5787C245.576 86.9437 245.529 89.4982 245.23 92.8419C240.23 86.5064 239.504 78.8579 229.465 78.7395C225.317 78.6906 221.023 78.6076 216.845 78.6196C216.618 88.4827 216.93 98.4559 216.81 108.33C216.764 112.044 216.81 115.89 217.094 119.588C220.898 121.854 226.297 124.864 229.71 127.45C225.596 127.915 218.501 127.712 214.113 127.71L186.439 127.669C189.082 125.239 193.671 122.051 196.711 119.678C197.167 109.802 196.927 98.5407 196.926 88.6056L196.946 36.583C194.787 34.7238 188.034 30.606 187.109 28.6834Z" fill="#C4A265"/>
<path d="M540.132 57.9153C560.569 55.5264 561.526 74.1816 561.361 88.7507C561.251 98.5931 560.817 111.253 561.695 120.936C564.149 123.125 566.583 125.338 568.996 127.572C558.934 128.016 546.872 127.681 536.689 127.653C538.383 125.605 540.941 123.032 542.813 121.047C543.182 108.761 542.72 96.1798 542.879 83.8952C543.102 66.6406 532.823 64.7084 520.582 74.7278V87.3643L520.73 120.883C523.584 123.038 526.39 125.25 529.154 127.518C518.744 128.064 504.888 127.697 494.32 127.618C496.851 125.234 499.425 122.895 502.042 120.602C502.379 115.254 502.214 108.17 502.221 102.751C502.259 92.7648 502.231 82.7792 502.138 72.7939C499.567 70.424 496.833 68.4653 494.104 65.8582C502.613 63.1939 511.171 60.6946 519.777 58.3619C520.035 62.1095 520.052 66.4739 520.159 70.2714C526.249 63.9353 531.295 59.6749 540.132 57.9153Z" fill="#C4A265"/>
<path d="M443.824 58.5927L444.075 58.6171C444.24 58.7625 444.402 58.9078 444.567 59.0531C444.712 74.5942 444.536 90.1471 444.633 105.69C444.654 108.814 445.101 113.304 447.091 115.852C452.599 122.905 461.408 117.162 466.761 113.132C467.029 99.1648 466.922 83.7159 466.761 69.7491C464.227 67.6351 461.735 65.622 459.401 63.2839C466.544 61.5927 477.663 59.7497 485.015 58.5469C485.198 74.4579 485.081 90.5744 485.084 106.496C485.136 110.441 485.27 114.385 485.497 118.324C487.928 120.043 490.351 121.777 492.764 123.524C488.158 125.341 472.898 128.63 467.366 129.94L467.143 117.477C461.239 123.686 455.421 129.529 446.316 129.951C441.418 130.194 436.192 129.335 432.443 125.901C424.98 119.065 426.495 107.41 426.344 98.226C426.185 88.7211 426.56 79.2176 426.134 69.7426C423.641 67.6444 421.152 65.6231 418.877 63.2918C423.448 61.9023 438.258 59.6016 443.824 58.5927Z" fill="#C4A265"/>
<path d="M401.438 40.8594C402.484 42.127 402.082 57.1299 402.082 60.1475C407.204 60.1099 412.219 60.0562 417.345 60.225L417.39 66.1114L402.133 66.1503C401.713 80.4893 402.088 95.2068 402.175 109.574C402.267 125.779 417.183 116.701 419.211 117.428C419.789 120.958 413.61 126.077 410.915 127.745C401.493 132.225 386.636 130.278 384.463 118.154C383.317 111.761 383.772 104.101 383.789 97.4943L383.827 66.1166C381.978 66.1362 378.46 66.3552 376.866 65.7343C376.446 64.0969 377.524 63.1485 378.691 62.2108C385.131 57.0334 391.193 51.6784 396.715 45.5147C398.14 43.92 399.782 42.234 401.438 40.8594Z" fill="#C4A265"/>
<path d="M365.599 57.9537C380.318 56.567 375.847 72.2376 368.411 77.476C365.581 76.3406 361.423 73.4315 358.428 73.4187C353.437 73.3977 350.583 80.0417 350.321 84.3403C350.087 88.1627 350.191 92.5884 350.197 96.6077C350.146 104.645 350.218 112.683 350.421 120.719C354.277 122.525 359.984 125.194 363.44 127.443C359.874 127.854 353.95 127.699 350.139 127.701L326.624 127.652C325.884 127.655 325.564 127.718 324.892 127.388C325.151 125.566 329.98 122.314 331.732 120.931C331.987 105.184 331.791 88.9344 331.798 73.1481C328.961 70.6026 326.479 68.3343 323.805 65.6246C332.276 63.0023 340.796 60.5515 349.364 58.2736C349.464 63.7816 349.685 69.74 349.461 75.2111C350.204 73.6963 350.958 72.1873 351.722 70.6845C355.099 64.1559 358.587 60.1875 365.599 57.9537Z" fill="#C4A265"/>
</svg>
